<svg width="48" height="46" viewBox="0 0 48 46" fill="none" xmlns="http://www.w3.org/2000/svg">
<path fill-rule="evenodd" clip-rule="evenodd" d="M21.2093 30.6097C21.2093 30.47 21.2678 30.336 21.372 30.2372C21.4762 30.1384 21.6174 30.0829 21.7647 30.0829C21.9121 30.0829 22.0533 30.1384 22.1575 30.2372C22.2617 30.336 22.3202 30.47 22.3202 30.6097V33.5017C22.3202 33.6414 22.2617 33.7754 22.1575 33.8742C22.0533 33.973 21.9121 34.0285 21.7647 34.0285C21.6174 34.0285 21.4762 33.973 21.372 33.8742C21.2678 33.7754 21.2093 33.6414 21.2093 33.5017V30.6097ZM25.2131 30.6097C25.2131 30.47 25.2717 30.336 25.3758 30.2372C25.48 30.1384 25.6213 30.0829 25.7686 30.0829C25.9159 30.0829 26.0572 30.1384 26.1613 30.2372C26.2655 30.336 26.324 30.47 26.324 30.6097V33.5017C26.324 33.6414 26.2655 33.7754 26.1613 33.8742C26.0572 33.973 25.9159 34.0285 25.7686 34.0285C25.6213 34.0285 25.48 33.973 25.3758 33.8742C25.2717 33.7754 25.2131 33.6414 25.2131 33.5017V30.6097ZM46.423 43.3627H1.10923V44.949H46.4241V43.3627H46.423ZM14.1004 39.6697V23.2536C14.1004 23.1143 14.1587 22.9807 14.2626 22.8822C14.3665 22.7837 14.5073 22.7284 14.6542 22.7284H32.8736C33.0205 22.7284 33.1613 22.7837 33.2652 22.8822C33.3691 22.9807 33.4274 23.1143 33.4274 23.2536V39.6697H42.9524V18.8221H4.57424V39.6697H14.1004ZM23.2112 39.6697V23.7804H15.2113V39.6697H23.2112ZM3.06795 40.7234V42.3096H44.4654V40.7234H3.06795ZM24.3205 23.7804V39.6697H32.322V23.7804H24.3205ZM23.7667 1.13018L17.0532 4.80691V12.1641L23.7667 15.8408C26.0051 14.6152 28.2429 13.3896 30.4802 12.1641V4.81059L23.7667 1.13018ZM15.9423 7.9584V6.36059H4.57424V7.95892L15.9423 7.9584ZM31.5911 9.01204H45.8786V17.769H1.65304V9.01257H15.9406V12.4666C15.9406 12.5588 15.9662 12.6494 16.0148 12.7292C16.0634 12.8091 16.1333 12.8754 16.2175 12.9215C18.6398 14.2479 21.0611 15.5733 23.4815 16.8976C23.5659 16.9452 23.6621 16.9707 23.7603 16.9714C23.8584 16.9722 23.9551 16.9481 24.0402 16.9018C26.4521 15.5813 28.864 14.2608 31.276 12.9404C31.3697 12.8974 31.4487 12.8303 31.5041 12.7467C31.5594 12.6631 31.5888 12.5664 31.5888 12.4676V9.01257L31.5911 9.01204ZM31.5911 6.36007V7.9584H42.9591V6.36059L31.5911 6.36007ZM24.0497 0.0739029C23.9651 0.0261638 23.8686 0.000658823 23.7702 1.25932e-05C23.6718 -0.000633636 23.575 0.0236022 23.4898 0.0702261L16.2552 4.03112C16.1614 4.07406 16.0824 4.14119 16.027 4.2248C15.9717 4.30841 15.9423 4.40512 15.9423 4.50384V5.3059H4.0188C3.87192 5.3059 3.73107 5.36124 3.62721 5.45974C3.52336 5.55824 3.46501 5.69184 3.46501 5.83114V7.95577H1.0976C0.950724 7.95577 0.809867 8.01111 0.706013 8.10961C0.602159 8.20812 0.543814 8.34171 0.543814 8.48102V18.2953C0.543814 18.4346 0.602159 18.5682 0.706013 18.6667C0.809867 18.7652 0.950724 18.8205 1.0976 18.8205H3.46335V39.6697H2.51251C2.36564 39.6697 2.22478 39.725 2.12093 39.8236C2.01707 39.9221 1.95873 40.0557 1.95873 40.195V42.3096H0.553782C0.40691 42.3096 0.266053 42.3649 0.162199 42.4634C0.0583446 42.562 0 42.6955 0 42.8349V45.4748C0 45.6141 0.0583446 45.7477 0.162199 45.8462C0.266053 45.9447 0.40691 46 0.553782 46H46.9796C47.1264 46 47.2673 45.9447 47.3711 45.8462C47.475 45.7477 47.5333 45.6141 47.5333 45.4748V42.8359C47.5333 42.6966 47.475 42.563 47.3711 42.4645C47.2673 42.366 47.1264 42.3107 46.9796 42.3107H45.5763V40.1965C45.5763 40.0572 45.5179 39.9236 45.4141 39.8251C45.3102 39.7266 45.1694 39.6713 45.0225 39.6713H44.07V18.8221H46.4357C46.5826 18.8221 46.7235 18.7668 46.8273 18.6683C46.9312 18.5698 46.9895 18.4362 46.9895 18.2969V8.48575C46.9895 8.34644 46.9312 8.21284 46.8273 8.11434C46.7235 8.01584 46.5826 7.9605 46.4357 7.9605H44.07V5.8343C44.07 5.69499 44.0116 5.56139 43.9078 5.46289C43.8039 5.36439 43.6631 5.30905 43.5162 5.30905H31.5911V4.50699C31.5911 4.4148 31.5655 4.32422 31.5169 4.24438C31.4683 4.16453 31.3983 4.09823 31.3142 4.05213L24.0497 0.0739029ZM24.5248 5.36052V7.23986C24.5248 7.37916 24.5831 7.51276 24.687 7.61127C24.7908 7.70977 24.9317 7.76511 25.0786 7.76511H27.0617V9.20376H25.0802C24.9334 9.20376 24.7925 9.2591 24.6887 9.3576C24.5848 9.4561 24.5265 9.5897 24.5265 9.72901V11.6078H23.0085V9.73216C23.0085 9.59285 22.9502 9.45926 22.8463 9.36075C22.7425 9.26225 22.6016 9.20691 22.4548 9.20691H20.4717V7.76931H22.4531C22.6 7.76931 22.7408 7.71397 22.8447 7.61547C22.9485 7.51696 23.0069 7.38337 23.0069 7.24406V5.36052H24.5248ZM22.4531 4.30688H25.0802C25.2271 4.30688 25.368 4.36221 25.4718 4.46072C25.5757 4.55922 25.634 4.69282 25.634 4.83212V6.71146H27.6155C27.7623 6.71146 27.9032 6.7668 28.007 6.8653C28.1109 6.9638 28.1692 7.0974 28.1692 7.23671V9.72901C28.1692 9.86831 28.1109 10.0019 28.007 10.1004C27.9032 10.1989 27.7623 10.2543 27.6155 10.2543H25.6357V12.1336C25.6357 12.2729 25.5773 12.4065 25.4735 12.505C25.3696 12.6035 25.2288 12.6588 25.0819 12.6588H22.4531C22.3062 12.6588 22.1654 12.6035 22.0615 12.505C21.9577 12.4065 21.8993 12.2729 21.8993 12.1336V10.2585H19.9162C19.7694 10.2585 19.6285 10.2031 19.5246 10.1046C19.4208 10.0061 19.3624 9.87251 19.3624 9.73321V7.23986C19.3624 7.10055 19.4208 6.96696 19.5246 6.86845C19.6285 6.76995 19.7694 6.71461 19.9162 6.71461H21.8977V4.8337C21.8974 4.76446 21.9117 4.69586 21.9395 4.63185C21.9673 4.56783 22.0082 4.50968 22.0599 4.46071C22.1115 4.41175 22.1728 4.37296 22.2403 4.34655C22.3078 4.32015 22.3801 4.30667 22.4531 4.30688Z" fill="#20899C"/>
</svg>
