<svg width="80" height="70" viewBox="0 0 80 70" fill="none" xmlns="http://www.w3.org/2000/svg">
<path d="M43.0248 70L12.124 37.5301C11.6128 36.9905 11.1281 36.4247 10.6716 35.8349L12.5917 34.2417C12.9979 34.7642 13.4349 35.2677 13.878 35.7393L43.0248 66.3674L72.1716 35.7393C75.6103 32.0979 77.5357 27.2071 77.5357 22.114C77.5357 17.021 75.6103 12.1302 72.1716 8.48879L71.8823 8.18289C70.1968 6.40398 68.1857 4.99088 65.9666 4.02623C63.7475 3.06158 61.365 2.56472 58.9583 2.56472C56.5516 2.56472 54.1691 3.06158 51.95 4.02623C49.7309 4.99088 47.7198 6.40398 46.0342 8.18289L43.0556 11.312L40.083 8.18289C38.3965 6.39893 36.3829 4.9816 34.1605 4.01398C31.9381 3.04637 29.5514 2.54795 27.1405 2.54795C24.7296 2.54795 22.343 3.04637 20.1205 4.01398C17.8981 4.9816 15.8846 6.39893 14.198 8.18289L13.9088 8.48879C10.441 12.1131 8.50037 17.012 8.51144 22.114H6.04971C6.02859 16.3463 8.21232 10.8041 12.124 6.69801L12.4133 6.39848C14.3285 4.37288 16.6149 2.76358 19.1385 1.66492C21.6621 0.566252 24.3722 0.000330921 27.1098 0.000330921C29.8473 0.000330921 32.5574 0.566252 35.081 1.66492C37.6046 2.76358 39.891 4.37288 41.8062 6.39848L43.0371 7.67306L44.268 6.39848C46.178 4.3711 48.4609 2.76043 50.9818 1.6615C53.5028 0.562576 56.2108 -0.00233896 58.946 9.10537e-05C61.6826 -0.00821223 64.393 0.551455 66.9172 1.64604C69.4414 2.74062 71.7282 4.34791 73.6425 6.37299L73.9317 6.67889C77.8219 10.7979 80.0001 16.3303 80.0001 22.0917C80.0001 27.8531 77.8219 33.3856 73.9317 37.5046L43.0248 70Z" fill="#20899C"/>
<path d="M30.9562 39.0022L25.6142 20.6674L21.817 29.7487H0V27.1996H20.1984L26.0266 13.2621L31.5839 32.3425L34.7165 26.2436H56.5212V28.7928H36.1935L30.9562 39.0022Z" fill="#20899C"/>
</svg>
